<?xml version="1.0" encoding="UTF-8"?>
<svg id="Layer_1" data-name="Layer 1" xmlns="http://www.w3.org/2000/svg" viewBox="0 0 366.24 369.7" fill="#3dff7a">
  <path d="M260.47,115.49c.47-16.82-3.53-31.24-9.04-46.14-3.93-10.64-5.11-22.25-4.45-33.53C248.26,14.04,267.08-1.48,288.57.11c13.23.98,25.39,3.82,36.93,10.24,16.47,9.16,28.13,23.97,34,42.19,6.22,19.3,8.52,40.11,5.28,60.31-2.18,13.63-8.59,25.73-14.12,38.02-5.23,11.62-12.91,20.41-20.39,30.58-20.58,27.96-39.43,56.4-57.56,86.07-10.1,16.52-19.4,32.57-26.95,50.27-6.31,14.78-13.62,28.37-25.17,39.45-17.04,16.35-43.63,16.49-61.92,1.13-8.2-6.89-13.6-15.32-18.99-24.77-19.21-33.72-39.56-66.03-61.7-97.96-12.43-17.92-25.03-34.46-39.19-50.93-13.18-15.33-23.33-32.37-30.65-51.21C-5.95,97.27-2.73,61.1,25.61,33.58c9.91-9.62,21.08-16.79,33.2-23.41,6.91-3.78,13.5-5.61,21.69-5.78,17.93-.37,34.77,11.34,37.89,29.57,3.15,18.41-.88,36.2-6.04,53.78-4.07,13.85-4.06,28.17-2.91,42.3.87,10.67,4.88,19.46,9.86,28.63,7.11,13.09,14.26,26.13,17.98,40.64,3.12,12.18,5.9,23.83,14.04,33.73,8.56,10.41,15.23,9.35,29.36,8.61,1.61,24.65.57,47.62-5.31,72.48,6.48-7.94,8.99-17.21,12.47-27.44,3.12,9.91,5.49,18.9,11.88,27.19-4.13-23.26-10.77-48.9-7.73-71.98,12.83-.65,23.96.66,29.47-9.91,6-11.49,10.68-22.98,14.13-35.44,3.13-11.3,8.73-20.66,13.95-30.99,7.73-15.3,10.45-32.49,10.94-50.06Z"/>
  <path d="M151.1,164.69l-.86,3.76c-.17.74-2.74.52-3.38.34-14.48-8.46-19.68-24.68-15.49-40.75l1.34-3.81c.31-.88,3.24-.25,3.93.22,10.36,10.91,14.4,24.83,14.45,40.24Z"/>
  <path d="M237.61,120.66c5.6,17.85,1.47,41.95-16.57,47.92-3.41-16.53,1.5-39.79,16.57-47.92Z"/>
  <path d="M171.86,225.13c.72-.58,3.53-.29,4.04.48.61.92.32,3.17-.48,4.08-.74.84-3.1.48-3.92-.26s-.57-3.55.37-4.3Z"/>
  <path d="M194.97,224.68c.72-.57,3.54-.28,4.08.47.65.9.33,3.06-.53,4.09-.7.85-3.06.49-3.87-.26s-.6-3.57.31-4.3Z"/>
</svg>