<?xml version="1.0" encoding="UTF-8"?>
<svg id="Layer_1" data-name="Layer 1" xmlns="http://www.w3.org/2000/svg" viewBox="0 0 2000 2000">
  <g fill="#f3f4f6">
    <path d="M380.03,1559.2c.72,8.87-1.44,11.03-10.31,11.03h-3.6c-8.87,0-11.03-2.16-11.75-11.03l-7.67-110.74c-.72-10.55-3.12-12.94-8.39-12.94-4.55,0-6.95,2.4-8.39,12.94l-12.94,96.36c-2.4,18.22-7.91,25.41-26.61,25.41-15.34,0-23.97-5.51-26.61-25.41l-13.18-96.36c-1.44-10.55-3.83-12.94-8.63-12.94s-7.43,2.4-8.15,12.94l-7.43,110.74c-.48,8.87-2.88,11.03-11.75,11.03h-3.6c-8.87,0-11.03-2.16-10.31-11.03l8.15-110.98c1.92-25.17,11.75-35.24,32.84-35.24,19.66,0,29,9.83,32.12,35.24l11.27,92.52c.96,7.19,1.68,8.63,5.27,8.63,3.36,0,4.08-1.44,5.03-8.63l11.27-92.52c3.12-25.41,12.7-35.24,32.12-35.24,21.09,0,30.92,9.83,32.84,35.24l8.39,110.98Z"/>
    <path d="M495.8,1534.51c0,26.37-15.58,38.35-51.06,38.35-31.16,0-48.66-11.51-48.66-36.91,0-26.85,18.94-36.19,48.9-36.19h26.37v-11.75c0-14.86-11.27-18.22-28.28-18.22-11.75,0-20.37,1.2-25.17,2.16-7.19,1.44-8.87-.48-8.87-7.67v-3.36c0-7.19,1.92-9.11,8.63-10.31,5.51-.96,11.03-1.92,23.97-1.92,32.36,0,54.17,9.35,54.17,39.31v46.5ZM471.35,1518.45h-26.37c-16.3,0-24.21,4.79-24.21,17.02,0,14.14,11.27,16.54,23.49,16.54,15.58,0,27.09-2.4,27.09-18.7v-14.86Z"/>
    <path d="M543.98,1559.44c0,8.63-2.16,10.79-10.79,10.79h-3.12c-8.63,0-10.79-2.16-10.79-10.79v-68.32c0-26.85,14.38-42.43,45.3-42.43,1.68,0,2.88,0,4.79.24,8.15.96,10.07,3.12,10.07,11.27v3.36c0,8.15-1.92,9.59-10.07,8.39-1.92-.24-3.12-.24-4.79-.24-16.78,0-20.61,7.43-20.61,21.09v66.64Z"/>
    <path d="M599.35,1413.22c0-8.63,2.16-10.79,10.79-10.79h2.88c8.63,0,10.79,2.16,10.79,10.79v146.22c0,8.63-2.16,10.79-10.79,10.79h-2.88c-8.63,0-10.79-2.16-10.79-10.79v-146.22ZM663.59,1461.4c7.19-8.15,11.51-10.07,22.29-10.07h4.08c10.79,0,11.75,1.92,4.55,10.07l-33.32,37.39c-2.64,2.64-4.79,5.51-4.79,8.63,0,2.88,2.16,5.75,4.55,8.39l38.35,44.34c7.19,8.15,6.23,10.07-4.55,10.07h-4.08c-10.79,0-15.1-1.92-22.29-10.07l-26.85-31.4c-7.67-8.87-9.59-14.86-9.59-22.05s1.92-11.99,9.59-20.38l22.05-24.93Z"/>
    <path d="M817.24,1508.86c-.96,8.87-3.36,11.03-12.22,11.03h-66.64v5.27c0,17.5,10.07,24.45,34.28,24.45,12.7,0,23.97-2.16,31.16-3.83,7.91-1.92,9.83.24,9.83,8.39v3.12c0,8.15-1.92,9.59-9.83,11.75-7.19,1.92-17.26,3.83-31.16,3.83-39.79,0-58.97-14.62-58.97-51.3v-20.85c0-29.96,13.18-52.02,53.21-52.02,33.08,0,50.82,16.78,50.82,49.62,0,5.03-.24,7.91-.48,10.55ZM738.38,1499.75h56.09v-5.99c0-16.3-10.31-23.73-28.28-23.73s-27.81,7.43-27.81,23.73v5.99Z"/>
    <path d="M831.62,1463.56c0-6.71,1.68-8.63,8.15-9.83l12.7-2.4,2.88-22.53c.96-6.95,2.88-8.63,9.83-8.63h3.12c6.95,0,8.63,1.68,8.63,8.63v22.53h33.56c8.15,0,10.07,1.92,10.07,10.07v2.88c0,8.15-1.92,10.07-10.07,10.07h-33.56v54.41c0,15.82,7.43,20.85,18.7,20.85,8.63,0,16.54-1.44,19.42-2.16,7.91-1.68,9.83.24,9.83,8.39v2.88c0,8.15-1.92,10.31-9.83,11.99-3.6.72-10.31,1.92-19.42,1.92-24.93,0-43.15-10.79-43.15-44.11v-54.17h-12.46c-6.71,0-8.39-1.68-8.39-8.39v-2.4Z"/>
    <path d="M1176.78,1559.2c.72,8.87-1.44,11.03-10.31,11.03h-3.6c-8.87,0-11.03-2.16-11.75-11.03l-7.67-110.74c-.72-10.55-3.12-12.94-8.39-12.94-4.55,0-6.95,2.4-8.39,12.94l-12.94,96.36c-2.4,18.22-7.91,25.41-26.61,25.41-15.34,0-23.97-5.51-26.61-25.41l-13.18-96.36c-1.44-10.55-3.83-12.94-8.63-12.94s-7.43,2.4-8.15,12.94l-7.43,110.74c-.48,8.87-2.88,11.03-11.75,11.03h-3.6c-8.87,0-11.03-2.16-10.31-11.03l8.15-110.98c1.92-25.17,11.75-35.24,32.84-35.24,19.66,0,29,9.83,32.12,35.24l11.27,92.52c.96,7.19,1.68,8.63,5.27,8.63,3.36,0,4.08-1.44,5.03-8.63l11.27-92.52c3.12-25.41,12.7-35.24,32.12-35.24,21.09,0,30.92,9.83,32.84,35.24l8.39,110.98Z"/>
    <path d="M1292.55,1534.51c0,26.37-15.58,38.35-51.06,38.35-31.16,0-48.66-11.51-48.66-36.91,0-26.85,18.94-36.19,48.9-36.19h26.37v-11.75c0-14.86-11.27-18.22-28.29-18.22-11.75,0-20.37,1.2-25.17,2.16-7.19,1.44-8.87-.48-8.87-7.67v-3.36c0-7.19,1.92-9.11,8.63-10.31,5.51-.96,11.03-1.92,23.97-1.92,32.36,0,54.17,9.35,54.17,39.31v46.5ZM1268.1,1518.45h-26.37c-16.3,0-24.21,4.79-24.21,17.02,0,14.14,11.27,16.54,23.49,16.54,15.58,0,27.09-2.4,27.09-18.7v-14.86Z"/>
    <path d="M1340.73,1559.44c0,8.63-2.16,10.79-10.79,10.79h-3.12c-8.63,0-10.79-2.16-10.79-10.79v-64.24c0-29.48,15.34-46.5,48.66-46.5,18.46,0,29.96,6.47,35.96,17.5,6.23-11.03,17.98-17.5,35.96-17.5,34.52,0,48.42,16.54,48.42,46.5v64.24c0,8.63-2.16,10.79-10.79,10.79h-3.12c-8.63,0-10.79-2.16-10.79-10.79v-64.24c0-15.1-4.31-23.49-23.73-23.49s-24.21,8.39-24.21,23.49v64.24c0,8.63-2.16,10.79-10.79,10.79h-2.4c-8.63,0-10.79-2.16-10.79-10.79v-64.24c0-15.1-4.07-23.49-23.73-23.49s-23.97,8.39-23.97,23.49v64.24Z"/>
    <path d="M1511.63,1413.22c0-8.63,2.16-10.79,10.79-10.79h2.88c8.63,0,10.79,2.16,10.79,10.79v51.06c5.99-9.59,16.78-15.58,35.24-15.58,34.52,0,49.86,19.42,49.86,52.25v20.61c0,35-18.22,51.3-54.89,51.3-33.32,0-54.65-16.3-54.65-51.3v-108.34ZM1596.49,1500.47c0-18.7-5.27-28.76-29.96-28.76s-30.44,10.07-30.44,28.76v20.61c0,18.7,5.75,28.52,30.44,28.52s29.96-9.83,29.96-28.52v-20.61Z"/>
    <path d="M1738.63,1534.51c0,26.37-15.58,38.35-51.06,38.35-31.16,0-48.66-11.51-48.66-36.91,0-26.85,18.94-36.19,48.9-36.19h26.37v-11.75c0-14.86-11.27-18.22-28.29-18.22-11.75,0-20.37,1.2-25.17,2.16-7.19,1.44-8.87-.48-8.87-7.67v-3.36c0-7.19,1.92-9.11,8.63-10.31,5.51-.96,11.03-1.92,23.97-1.92,32.36,0,54.17,9.35,54.17,39.31v46.5ZM1714.18,1518.45h-26.37c-16.3,0-24.21,4.79-24.21,17.02,0,14.14,11.27,16.54,23.49,16.54,15.58,0,27.09-2.4,27.09-18.7v-14.86Z"/>
  </g>
  <g fill="#3dff7a">
    <path d="M1144.21,764.56c.88-31.36-6.58-58.24-16.84-86.02-7.33-19.83-9.53-41.47-8.3-62.52,2.38-40.6,37.46-69.54,77.53-66.58,24.67,1.82,47.34,7.12,68.85,19.09,30.7,17.08,52.44,44.69,63.38,78.65,11.59,35.98,15.88,74.77,9.84,112.43-4.07,25.4-16.01,47.97-26.32,70.88-9.75,21.66-24.06,38.05-38.02,57-38.37,52.12-73.51,105.15-107.31,160.47-18.83,30.81-36.16,60.72-50.25,93.73-11.76,27.55-25.4,52.89-46.93,73.56-31.76,30.48-81.33,30.74-115.43,2.11-15.29-12.84-25.36-28.57-35.4-46.17-35.82-62.86-73.76-123.11-115.04-182.63-23.17-33.41-46.66-64.25-73.06-94.95-24.57-28.57-43.49-60.35-57.15-95.48-26.26-67.54-20.26-134.98,32.58-186.28,18.47-17.93,39.29-31.29,61.89-43.65,12.89-7.05,25.16-10.46,40.44-10.77,33.43-.69,64.83,21.14,70.64,55.12,5.87,34.32-1.64,67.5-11.26,100.26-7.59,25.83-7.57,52.51-5.43,78.85,1.62,19.89,9.09,36.28,18.38,53.38,13.25,24.4,26.59,48.71,33.52,75.76,5.82,22.72,11,44.42,26.18,62.89,15.95,19.42,28.39,17.43,54.74,16.04,3,45.96,1.07,88.77-9.9,135.13,12.09-14.8,16.76-32.08,23.24-51.15,5.82,18.48,10.24,35.24,22.14,50.69-7.7-43.37-20.08-91.16-14.41-134.19,23.92-1.21,44.67,1.23,54.95-18.47,11.18-21.43,19.9-42.84,26.35-66.08,5.84-21.07,16.28-38.52,26.01-57.78,14.41-28.52,19.47-60.57,20.39-93.33Z"/>
    <path d="M940.3,856.28l-1.6,7.01c-.31,1.38-5.11.97-6.31.63-26.99-15.78-36.69-46.01-28.87-75.97l2.5-7.11c.58-1.65,6.04-.46,7.33.41,19.32,20.34,26.85,46.28,26.95,75.02Z"/>
    <path d="M1101.58,774.2c10.43,33.27,2.74,78.2-30.89,89.34-6.37-30.81,2.8-74.18,30.89-89.34Z"/>
    <path d="M979.01,968.97c1.34-1.08,6.58-.53,7.53.9,1.15,1.71.59,5.91-.9,7.6-1.38,1.57-5.78.9-7.31-.48s-1.06-6.62.68-8.02Z"/>
    <path d="M1022.1,968.13c1.35-1.07,6.6-.52,7.61.87,1.21,1.67.61,5.7-.98,7.63-1.31,1.59-5.71.92-7.21-.49s-1.12-6.66.58-8.01Z"/>
  </g>
</svg>