<?xml version="1.0" encoding="UTF-8"?>
<svg id="Layer_1" data-name="Layer 1" xmlns="http://www.w3.org/2000/svg" viewBox="0 0 1844.16 439.72">
  <g fill="#f3f4f6">
    <path d="M645.82,271.32c.58,8.96-1.56,11.29-10.51,11.29h-3.89c-8.96,0-11.49-2.34-12.07-11.29l-5.45-83.34c-.58-7.98-1.17-9.74-4.48-9.74-3.12,0-4.09,1.75-5.06,9.74l-8.96,71.46c-2.14,17.14-7.21,23.17-24.92,23.17-13.83,0-22.39-4.09-24.92-23.17l-9.15-71.46c-.97-7.98-1.95-9.74-5.06-9.74s-3.89,1.75-4.48,9.74l-5.26,83.34c-.58,8.96-3.12,11.29-12.07,11.29h-3.89c-8.96,0-11.1-2.34-10.52-11.29l6.23-85.29c1.56-20.83,9.54-31.16,29.6-31.16,18.5,0,26.68,9.74,29.01,31.16l7.2,68.73c.58,5.26.78,6.43,3.31,6.43s2.73-1.17,3.31-6.43l7.21-68.73c2.14-21.22,10.51-31.16,28.82-31.16,20.25,0,28.23,9.93,29.79,31.16l6.23,85.29Z"/>
    <path d="M742.2,253.6c0,20.64-12.27,31.35-42.25,31.35s-42.25-10.71-42.25-30.77c0-22.78,16.36-30.38,39.53-30.38h19.67v-7.4c0-10.12-8.18-11.88-20.25-11.88-7.79,0-14.02.78-16.94,1.17-8.37,1.17-10.9-.39-10.9-9.15v-.78c0-8.37,2.14-10.71,10.51-11.88,2.92-.39,7.59-.97,15.77-.97,28.62,0,47.12,7.98,47.12,33.49v37.19ZM716.89,242.89h-20.06c-9.35,0-13.83,3.5-13.83,10.71,0,9.35,7.79,10.12,16.55,10.12s17.33-.78,17.33-11.49v-9.35Z"/>
    <path d="M784.84,271.71c0,8.76-2.14,10.9-10.9,10.9h-3.7c-8.76,0-10.9-2.14-10.9-10.9v-53.35c0-22.98,13.83-35.44,40.5-35.44h2.14c7.79,0,9.93,3.7,9.93,12.46v2.14c0,8.76-1.95,9.93-9.93,9.35h-2.14c-12.66,0-14.99,4.67-14.99,13.44v51.41Z"/>
    <path d="M827.48,157.22c0-8.76,2.14-10.9,10.9-10.9h3.5c8.76,0,10.9,2.14,10.9,10.9v114.49c0,8.76-2.14,10.9-10.9,10.9h-3.5c-8.76,0-10.9-2.14-10.9-10.9v-114.49ZM882.78,193.63c5.45-6.62,8.96-8.37,17.72-8.37h9.74c8.76,0,9.35,1.56,3.89,8.37l-25.51,31.15c-1.56,1.75-3.7,4.09-3.7,6.43,0,2.14,2.14,4.67,3.5,6.23l29.79,36.61c5.45,6.81,4.67,8.57-4.09,8.57h-9.74c-8.76,0-12.27-1.75-17.72-8.57l-19.67-24.53c-5.84-7.2-7.59-12.46-7.59-19.08s1.95-10.52,7.59-17.33l15.77-19.47Z"/>
    <path d="M1015.58,232.57c-1.17,8.96-3.7,10.71-12.66,10.71h-49.46v2.92c0,10.13,7.4,14.8,25.51,14.8,10.12,0,19.86-1.95,23.56-2.73,8.57-1.75,10.32.58,10.32,9.35v2.14c0,8.76-1.75,10.52-10.32,12.66-3.7.97-12.85,2.53-23.76,2.53-34.46,0-50.82-12.46-50.82-42.64v-15.58c0-25.12,11.49-43.81,45.37-43.81,28.43,0,42.64,14.41,42.64,42.06,0,1.56,0,4.09-.39,7.59ZM953.47,222.64h38.36v-2.92c0-9.74-6.43-14.8-19.28-14.8s-19.08,5.06-19.08,14.8v2.92Z"/>
    <path d="M1026.29,198.69c0-7.79,1.95-10.12,9.54-11.68l7.98-1.75,2.34-15.38c1.17-7.98,3.5-9.93,11.68-9.93h1.17c8.18,0,10.12,1.95,10.12,10.12v15.19h22.2c8.76,0,10.9,2.14,10.9,10.9v2.14c0,8.76-2.14,10.9-10.9,10.9h-22.2v38.55c0,9.74,4.87,13.05,12.27,13.05,6.82,0,11.68-.78,13.63-1.17,8.57-1.56,10.71-.78,10.71,7.98v2.14c0,8.76-2.14,12.07-10.71,13.83-2.53.58-6.81,1.17-13.63,1.17-21.61,0-37.58-8.76-37.58-37.19v-38.36h-7.79c-7.79,0-9.74-1.95-9.74-9.74v-.78Z"/>
    <path d="M1309.99,271.32c.58,8.96-1.56,11.29-10.51,11.29h-3.89c-8.96,0-11.49-2.34-12.07-11.29l-5.45-83.34c-.58-7.98-1.17-9.74-4.48-9.74-3.12,0-4.09,1.75-5.06,9.74l-8.96,71.46c-2.14,17.14-7.21,23.17-24.92,23.17-13.83,0-22.39-4.09-24.92-23.17l-9.15-71.46c-.97-7.98-1.95-9.74-5.06-9.74s-3.89,1.75-4.48,9.74l-5.26,83.34c-.58,8.96-3.12,11.29-12.07,11.29h-3.89c-8.96,0-11.1-2.34-10.52-11.29l6.23-85.29c1.56-20.83,9.54-31.16,29.6-31.16,18.5,0,26.68,9.74,29.01,31.16l7.2,68.73c.58,5.26.78,6.43,3.31,6.43s2.73-1.17,3.31-6.43l7.21-68.73c2.14-21.22,10.51-31.16,28.82-31.16,20.25,0,28.23,9.93,29.79,31.16l6.23,85.29Z"/>
    <path d="M1406.37,253.6c0,20.64-12.27,31.35-42.25,31.35s-42.25-10.71-42.25-30.77c0-22.78,16.36-30.38,39.53-30.38h19.67v-7.4c0-10.12-8.18-11.88-20.25-11.88-7.79,0-14.02.78-16.94,1.17-8.37,1.17-10.9-.39-10.9-9.15v-.78c0-8.37,2.14-10.71,10.51-11.88,2.92-.39,7.59-.97,15.77-.97,28.62,0,47.12,7.98,47.12,33.49v37.19ZM1381.06,242.89h-20.06c-9.35,0-13.83,3.5-13.83,10.71,0,9.35,7.79,10.12,16.55,10.12s17.33-.78,17.33-11.49v-9.35Z"/>
    <path d="M1449.01,271.71c0,8.76-2.14,10.9-10.9,10.9h-3.7c-8.76,0-10.9-2.14-10.9-10.9v-49.46c0-25.51,14.41-39.33,41.67-39.33,13.63,0,23.17,4.28,28.82,12.46,5.84-8.18,15.58-12.46,28.62-12.46,28.62,0,41.28,13.24,41.28,39.33v49.46c0,8.76-2.14,10.9-10.9,10.9h-3.7c-8.76,0-10.9-2.14-10.9-10.9v-49.46c0-9.93-2.34-15.38-15.77-15.38s-16.55,5.45-16.55,15.38v49.46c0,8.76-2.14,10.9-10.9,10.9h-2.92c-8.76,0-10.9-2.14-10.9-10.9v-49.46c0-9.93-2.34-15.38-16.16-15.38s-16.16,5.45-16.16,15.38v49.46Z"/>
    <path d="M1582.97,157.22c0-8.76,2.14-10.9,10.9-10.9h3.5c8.76,0,10.9,2.14,10.9,10.9v36.8c5.06-6.82,13.24-11.1,26.68-11.1,27.07,0,40.89,15.97,40.89,43.81v15.58c0,30.57-17.33,42.64-46.54,42.64-25.7,0-46.34-12.07-46.34-42.64v-85.09ZM1650.34,226.15c0-12.46-3.31-19.28-20.83-19.28s-21.22,6.81-21.22,19.28v15.58c0,12.46,3.7,19.28,21.22,19.28s20.83-6.81,20.83-19.28v-15.58Z"/>
    <path d="M1772.62,253.6c0,20.64-12.27,31.35-42.25,31.35s-42.25-10.71-42.25-30.77c0-22.78,16.36-30.38,39.53-30.38h19.67v-7.4c0-10.12-8.18-11.88-20.25-11.88-7.79,0-14.02.78-16.94,1.17-8.37,1.17-10.9-.39-10.9-9.15v-.78c0-8.37,2.14-10.71,10.51-11.88,2.92-.39,7.59-.97,15.77-.97,28.62,0,47.12,7.98,47.12,33.49v37.19ZM1747.31,242.89h-20.06c-9.35,0-13.83,3.5-13.83,10.71,0,9.35,7.79,10.12,16.55,10.12s17.33-.78,17.33-11.49v-9.35Z"/>
  </g>
  <g fill="#3dff7a">
    <path d="M317.08,149.75c.47-16.82-3.53-31.24-9.04-46.14-3.93-10.64-5.11-22.25-4.45-33.53,1.28-21.78,20.09-37.3,41.59-35.71,13.23.98,25.39,3.82,36.93,10.24,16.47,9.16,28.13,23.97,34,42.19,6.22,19.3,8.52,40.11,5.28,60.31-2.18,13.63-8.59,25.73-14.12,38.02-5.23,11.62-12.91,20.41-20.39,30.58-20.58,27.96-39.43,56.4-57.56,86.07-10.1,16.52-19.4,32.57-26.95,50.27-6.31,14.78-13.62,28.37-25.17,39.45-17.04,16.35-43.63,16.49-61.92,1.13-8.2-6.89-13.6-15.32-18.99-24.77-19.21-33.72-39.56-66.03-61.7-97.96-12.43-17.92-25.03-34.46-39.19-50.93-13.18-15.33-23.33-32.37-30.65-51.21-14.09-36.23-10.87-72.4,17.48-99.92,9.91-9.62,21.08-16.79,33.2-23.41,6.91-3.78,13.5-5.61,21.69-5.78,17.93-.37,34.77,11.34,37.89,29.57,3.15,18.41-.88,36.2-6.04,53.78-4.07,13.85-4.06,28.17-2.91,42.3.87,10.67,4.88,19.46,9.86,28.63,7.11,13.09,14.26,26.13,17.98,40.64,3.12,12.18,5.9,23.83,14.04,33.73,8.56,10.41,15.23,9.35,29.36,8.61,1.61,24.65.57,47.62-5.31,72.48,6.48-7.94,8.99-17.21,12.47-27.44,3.12,9.91,5.49,18.9,11.88,27.19-4.13-23.26-10.77-48.9-7.73-71.98,12.83-.65,23.96.66,29.47-9.91,6-11.49,10.68-22.98,14.13-35.44,3.13-11.3,8.73-20.66,13.95-30.99,7.73-15.3,10.45-32.49,10.94-50.06Z"/>
    <path d="M207.7,198.94l-.86,3.76c-.17.74-2.74.52-3.38.34-14.48-8.46-19.68-24.68-15.49-40.75l1.34-3.81c.31-.88,3.24-.25,3.93.22,10.36,10.91,14.4,24.83,14.45,40.24Z"/>
    <path d="M294.21,154.92c5.6,17.85,1.47,41.95-16.57,47.92-3.41-16.53,1.5-39.79,16.57-47.92Z"/>
    <path d="M228.46,259.39c.72-.58,3.53-.29,4.04.48.61.92.32,3.17-.48,4.08-.74.84-3.1.48-3.92-.26s-.57-3.55.37-4.3Z"/>
    <path d="M251.58,258.94c.72-.57,3.54-.28,4.08.47.65.9.33,3.06-.53,4.09-.7.85-3.06.49-3.87-.26s-.6-3.57.31-4.3Z"/>
  </g>
</svg>